<?xml version="1.0" ?><svg id="Layer_1" style="enable-background:new 0 0 64 64;" version="1.1" viewBox="0 0 64 64" xml:space="preserve" xmlns="http://www.w3.org/2000/svg" xmlns:xlink="http://www.w3.org/1999/xlink"><style type="text/css">
	.st0{fill:#62BEE7;}
	.st1{fill:#474E5E;}
	.st2{fill:#F3EEE4;}
	.st3{fill:#FFFFFF;}
	.st4{fill:#E8DCCA;}
	.st5{opacity:0.1;fill:#231F20;}
	.st6{fill:#506268;}
	.st7{fill:#EB5151;}
	.st8{fill:#C64444;}
	.st9{fill:#9CCB5B;}
	.st10{fill:#404A4C;}
	.st11{fill:#676767;}
	.st12{fill:#E0E1E5;}
	.st13{fill:#9D9EA0;}
	.st14{fill:#B3B4B7;}
	.st15{opacity:0.1;}
	.st16{fill:#231F20;}
	.st17{fill:#FACC20;}
	.st18{fill:#FDEF34;}
	.st19{fill:#F7A90B;}
	.st20{fill:#20B8EA;}
	.st21{fill:#00A8EA;}
	.st22{fill:#33D3F4;}
	.st23{opacity:0.25;fill:#FFFFFF;}
	.st24{fill:#CACBCE;}
	.st25{fill:#2E3545;}
	.st26{fill:#8DAF4A;}
	.st27{fill:#F9C2AF;}
	.st28{fill:#AFDDF4;}
	.st29{fill:#677177;}
	.st30{fill:#FFEDB3;}
	.st31{fill:#695652;}
	.st32{fill:#30A7BF;}
	.st33{fill:#4D5556;}
	.st34{opacity:0.35;}
	.st35{fill:#FFCB04;}
	.st36{fill:#99E9FA;}
	.st37{opacity:0.2;}
	.st38{opacity:3.000000e-02;}
	.st39{fill:#9ECA5B;}
	.st40{fill:#98BA56;}
	.st41{fill:#40EEFF;}
	.st42{fill:#FF6A52;}
	.st43{opacity:0.1;fill:#FFFFFF;}
	.st44{opacity:0.4;}
	.st45{fill:#57606D;}
	.st46{fill:#BACA5B;}
	.st47{opacity:0.25;}
	.st48{opacity:5.000000e-02;fill:#231F20;}
	.st49{opacity:0.2;fill:#FFFFFF;}
	.st50{opacity:0.3;}
	.st51{fill:#FFD82F;}
	.st52{fill:#F4C121;}
	.st53{fill:#EF9D0A;}
	.st54{fill:#F9E532;}
	.st55{fill:#F4C01E;}
	.st56{fill:#FFE14D;}
	.st57{fill:#B7C156;}
	.st58{fill:#DBA92C;}
	.st59{fill:#363D4D;}
	.st60{fill:#3F4656;}
	.st61{fill:#463E33;}
	.st62{fill:none;}
	.st63{opacity:4.000000e-02;}
	.st64{fill:#4DB6AC;}
	.st65{fill:#CADE49;}
	.st66{fill:#9FD343;}
	.st67{fill:#AAD643;}
	.st68{fill:#82C736;}
	.st69{opacity:0.3;fill:#FFFFFF;}
	.st70{fill:#FFD640;}
	.st71{opacity:0.5;}
	.st72{opacity:0.6;}
</style><g><circle class="st35" cx="32" cy="32" r="32"/><g><path class="st3" d="M13.2,24.5c-2,2.4-3.5,5.4-4.1,8.6c-0.6,3.2-0.4,6.7,0.7,9.9c0.9,2.6,2.3,5,4.2,7.1l-3.7,3.7h11.2V42.7    l-3.8,3.8c-1.7-1.3-3.1-3-4.1-5c-1.2-2.4-1.9-5.2-1.8-8c0.1-2.8,0.9-5.7,2.4-8.1c1.5-2.5,3.7-4.7,6.4-6.2    C17.8,20.3,15.2,22.1,13.2,24.5z"/><path class="st31" d="M50.8,39.5c2-2.4,3.5-5.4,4.1-8.6c0.6-3.2,0.4-6.7-0.7-9.9c-0.9-2.6-2.3-5-4.2-7.1l3.7-3.7H42.5v11.2    l3.8-3.8c1.7,1.3,3.1,3,4.1,5c1.2,2.4,1.9,5.2,1.8,8c-0.1,2.8-0.9,5.7-2.4,8.1c-1.5,2.5-3.7,4.7-6.4,6.2    C46.2,43.7,48.8,41.9,50.8,39.5z"/><path class="st21" d="M38.7,23.8c-2.8,0-5.2,1.4-6.7,3.5c0.9,1.3,1.5,3,1.5,4.7c0,1.8-0.6,3.4-1.5,4.7c1.5,2.1,4,3.5,6.7,3.5    c4.5,0,8.2-3.7,8.2-8.2C47,27.4,43.3,23.8,38.7,23.8z"/><path class="st3" d="M41.2,35.1l0.6,1.7c-0.5,0.3-1,0.5-1.6,0.5c-0.3,0-0.8-0.1-1.3-0.3c-0.6-0.2-1-0.3-1.3-0.3    c-0.5,0-0.9,0.2-1.4,0.6l-0.6-1.7c0.4-0.3,0.7-0.7,0.9-1.1c0.2-0.4,0.3-0.8,0.3-1.2c0-0.1,0-0.3,0-0.4h-1.2v-1.5h0.9    c-0.2-0.5-0.2-1.1-0.2-1.7c0-0.8,0.3-1.5,0.8-2s1.1-0.8,1.9-0.8c0.7,0,1.3,0.2,1.7,0.7c0.5,0.4,0.7,1.1,0.8,2L40,29.7    c-0.1-0.9-0.5-1.4-1.1-1.4c-0.3,0-0.5,0.1-0.7,0.4c-0.2,0.2-0.3,0.6-0.3,0.9c0,0.5,0.1,1,0.3,1.6h1.8v1.5h-1.5c0,0.1,0,0.2,0,0.3    c0,0.4-0.1,0.7-0.2,1c-0.1,0.3-0.3,0.7-0.7,1.2c0.2-0.1,0.5-0.2,0.8-0.2c0.1,0,0.3,0,0.4,0c0.1,0,0.3,0.1,0.7,0.2    c0.2,0.1,0.5,0.1,0.6,0.1C40.4,35.5,40.8,35.4,41.2,35.1z"/><path class="st5" d="M46.9,32c0,4.5-3.7,8.2-8.2,8.2c-0.2,0-0.4,0-0.7,0c4.3-0.3,7.6-3.9,7.6-8.2c0-4.3-3.3-7.9-7.6-8.2    c0.2,0,0.4,0,0.6,0C43.2,23.8,46.9,27.4,46.9,32z"/><path class="st49" d="M39.4,40.2c-0.2,0-0.4,0-0.6,0c-4.5,0-8.2-3.7-8.2-8.2c0-4.5,3.7-8.2,8.2-8.2c0.2,0,0.4,0,0.7,0    c-4.3,0.3-7.6,3.9-7.6,8.2C31.8,36.3,35.2,39.9,39.4,40.2z"/><circle class="st7" cx="25.3" cy="32" r="8.2"/><path class="st3" d="M28.5,32.9c-0.1-0.4-0.5-1.4-2.8-1.8l0-2.7c0.5,0.2,0.9,0.5,1,1.1c0.1,0.5,0.4,0.7,0.8,0.7    c0.2,0,1.6-0.4,0.2-2.1c-0.2-0.3-0.6-0.8-2.1-0.9l0-1.1l-0.8,0l0,1.1c-2.6,0.3-2.8,1.9-2.8,2.7c0,2.2,2.2,2.6,2.8,2.8l0,3    c-1.1-0.2-1.3-1.3-1.4-1.7c-0.2-0.5-0.6-0.5-0.8-0.5c-0.6,0-0.9,0.6-0.9,0.8c0,0.3,0.1,1.6,1.7,2.4c0.4,0.2,0.8,0.3,1.3,0.4l0,1    l0.8,0l0-1c0.6-0.1,1.2-0.2,1.6-0.5C28.6,35.7,29,34.3,28.5,32.9z M24.9,30.9c-0.6-0.3-1.1-0.4-1.2-1.3c0-0.4,0.1-1,1.2-1.2    L24.9,30.9z M25.7,35.7l0-2.9c1.4,0.4,1.4,1,1.4,1.4C27.1,34.6,27,35.4,25.7,35.7z"/><path class="st5" d="M33.5,32c0,4.5-3.7,8.2-8.2,8.2c-0.2,0-0.4,0-0.7,0c4.3-0.3,7.6-3.9,7.6-8.2c0-4.3-3.3-7.9-7.6-8.2    c0.2,0,0.4,0,0.6,0C29.8,23.8,33.5,27.4,33.5,32z"/><path class="st49" d="M25.9,40.2c-0.2,0-0.4,0-0.6,0c-4.5,0-8.2-3.7-8.2-8.2c0-4.5,3.7-8.2,8.2-8.2c0.2,0,0.4,0,0.7,0    c-4.3,0.3-7.6,3.9-7.6,8.2C18.3,36.3,21.7,39.9,25.9,40.2z"/></g></g></svg>